<svg width="185" height="79" viewBox="0 0 185 79" fill="none" xmlns="http://www.w3.org/2000/svg">
<path d="M0.913576 62L15.3463 0.552808H18.7168L30.8161 53.0984C31.594 56.2096 33.1496 59.4073 34.4459 62C30.6433 61.2222 25.89 60.8765 20.9639 62C21.0503 59.4937 21.0503 57.2467 20.5317 54.654L20.0132 51.8884H10.5066L8.95097 62C6.09899 61.3086 3.85198 61.3086 0.913576 62ZM11.198 47.308H19.2354L14.9142 23.7143L11.198 47.308ZM47.6769 62.9507C47.3312 62.9507 46.899 62.9507 46.5533 62.8642C46.5533 67.3583 46.5533 71.9387 47.0719 76.1735C42.6643 76.4327 39.553 77.1241 36.8739 78.1612C36.2689 75.05 36.1825 71.5066 36.1825 67.6175V24.2329C36.1825 21.5537 35.7504 18.5289 34.454 15.072C37.5653 15.3312 41.4544 14.6399 44.4792 13.4299C45.9484 16.1955 46.5533 20.2574 46.5533 23.4551V57.7652C47.2447 58.5431 47.8497 58.8023 48.3682 58.8023C50.0967 58.8023 52.4302 56.8146 52.4302 41.604C52.4302 27.8627 51.5659 20.0845 49.2325 20.0845C48.2818 20.0845 47.2447 20.8624 46.5533 23.2822C47.0719 16.714 50.6153 13.4299 53.8994 13.4299C59.949 13.4299 63.406 22.3316 63.406 36.3322C63.406 57.0739 55.0229 62.9507 47.6769 62.9507ZM79.8325 62.9507C79.4868 62.9507 79.0547 62.9507 78.709 62.8642C78.709 67.3583 78.709 71.9387 79.2276 76.1735C74.82 76.4327 71.7087 77.1241 69.0296 78.1612C68.4246 75.05 68.3382 71.5066 68.3382 67.6175V24.2329C68.3382 21.5537 67.9061 18.5289 66.6097 15.072C69.721 15.3312 73.61 14.6399 76.6348 13.4299C78.104 16.1955 78.709 20.2574 78.709 23.4551V57.7652C79.4004 58.5431 80.0054 58.8023 80.5239 58.8023C82.2524 58.8023 84.5858 56.8146 84.5858 41.604C84.5858 27.8627 83.7216 20.0845 81.3881 20.0845C80.4375 20.0845 79.4004 20.8624 78.709 23.2822C79.2276 16.714 82.7709 13.4299 86.055 13.4299C92.1047 13.4299 95.5616 22.3316 95.5616 36.3322C95.5616 57.0739 87.1785 62.9507 79.8325 62.9507ZM114.927 62.9507C105.42 62.9507 99.1975 53.1848 99.1975 37.6285C99.1975 19.6524 108.013 13.5163 114.322 13.5163C120.371 13.5163 125.643 19.7389 125.038 30.8011C124.952 32.3567 124.001 33.1345 123.05 33.1345H109.914C110.087 47.4808 112.939 56.8146 120.112 56.8146C122.1 56.8146 124.087 56.2096 125.125 55.1725C123.915 60.5308 120.631 62.9507 114.927 62.9507ZM109.914 29.2454H114.754C115.445 19.1339 113.544 17.0597 112.334 17.0597C111.729 17.0597 110.087 17.8375 109.914 29.2454ZM140.496 62.9507C132.459 62.9507 130.212 57.7652 130.212 53.9626V18.1832H127.187V17.1461C131.681 14.0349 135.743 10.0594 139.459 5.04683L140.496 5.6518V14.467H146.978L146.46 18.1832H140.496V51.4563C140.496 54.1355 141.188 56.7282 143.521 56.7282C144.386 56.7282 145.509 56.4689 146.719 55.5182L146.114 60.7901C144.818 62.3457 142.139 62.9507 140.496 62.9507ZM149.857 62C150.289 59.148 150.289 56.296 150.289 53.4441V23.0229C150.289 20.171 150.289 17.319 149.857 14.467C153.573 15.3312 157.375 15.4177 161.092 14.467C160.746 16.9733 160.746 19.8253 160.746 23.0229V53.4441C160.746 56.8146 160.746 59.4937 161.092 62C157.375 61.0493 153.4 61.1358 149.857 62ZM149.252 5.47895C149.252 2.3677 153.141 0.0342677 156.166 0.0342677C159.795 0.0342677 161.61 3.57763 161.61 5.56537C161.61 8.67663 157.808 11.0101 154.956 11.0101C151.758 11.0101 149.252 8.07166 149.252 5.47895ZM177.632 62.9507C169.594 62.9507 167.347 57.7652 167.347 53.9626V18.1832H164.322V17.1461C168.816 14.0349 172.878 10.0594 176.595 5.04683L177.632 5.6518V14.467H184.113L183.595 18.1832H177.632V51.4563C177.632 54.1355 178.323 56.7282 180.656 56.7282C181.521 56.7282 182.644 56.4689 183.854 55.5182L183.249 60.7901C181.953 62.3457 179.274 62.9507 177.632 62.9507Z" fill="#000000"/>
</svg>
